HIERARCHY
ROOT Hips
{
	OFFSET 0.000000 0.000000 0.000000
	CHANNELS 6 Xposition Yposition Zposition Zrotation Yrotation Xrotation 
	JOINT LowerBack
	{
		OFFSET 0.000000 0.000000 0.000000
		CHANNELS 3 Zrotation Yrotation Xrotation
		JOINT Spine
		{
			OFFSET 0.028270 2.035590 -0.193380
			CHANNELS 3 Zrotation Yrotation Xrotation
			JOINT Spine1
			{
				OFFSET 0.056720 2.048850 -0.042750
				CHANNELS 3 Zrotation Yrotation Xrotation
				JOINT Neck
				{
					OFFSET 0.000000 0.000000 0.000000
					CHANNELS 3 Zrotation Yrotation Xrotation
					JOINT Neck1
					{
						OFFSET -0.054170 1.746240 0.172020
						CHANNELS 3 Zrotation Yrotation Xrotation
						JOINT Head
						{
							OFFSET 0.104070 1.761360 -0.123970
							CHANNELS 3 Zrotation Yrotation Xrotation
							End Site
							{
								OFFSET 0.000000 0.000000 0.000000
							}
						}
					}
				}
				JOINT LeftShoulder
				{
					OFFSET 0.000000 0.000000 0.000000
					CHANNELS 3 Zrotation Yrotation Xrotation
					JOINT LeftArm
					{
						OFFSET 3.362410 1.200890 -0.311210
						CHANNELS 3 Zrotation Yrotation Xrotation
						JOINT LeftForeArm
						{
							OFFSET 4.983000 -0.000000 -0.000000
							CHANNELS 3 Zrotation Yrotation Xrotation
							JOINT LeftHand
							{
								OFFSET 3.483560 -0.000000 -0.000000
								CHANNELS 3 Zrotation Yrotation Xrotation
								JOINT LeftFingerBase
								{
									OFFSET 0.000000 0.000000 0.000000
									CHANNELS 3 Zrotation Yrotation Xrotation
									JOINT LeftHandIndex1
									{
										OFFSET 0.715260 -0.000000 -0.000000
										CHANNELS 3 Zrotation Yrotation Xrotation
										End Site
										{
											OFFSET 0.000000 0.000000 0.000000
										}
									}
								}
								JOINT LThumb
								{
									OFFSET 0.000000 0.000000 0.000000
									CHANNELS 3 Zrotation Yrotation Xrotation
									End Site
									{
										OFFSET 0.000000 0.000000 0.000000
									}
								}
							}
						}
					}
				}
				JOINT RightShoulder
				{
					OFFSET 0.000000 0.000000 0.000000
					CHANNELS 3 Zrotation Yrotation Xrotation
					JOINT RightArm
					{
						OFFSET -3.136600 1.374050 -0.404650
						CHANNELS 3 Zrotation Yrotation Xrotation
						JOINT RightForeArm
						{
							OFFSET -5.241900 -0.000000 -0.000000
							CHANNELS 3 Zrotation Yrotation Xrotation
							JOINT RightHand
							{
								OFFSET -3.444170 -0.000000 -0.000000
								CHANNELS 3 Zrotation Yrotation Xrotation
								JOINT RightFingerBase
								{
									OFFSET 0.000000 0.000000 0.000000
									CHANNELS 3 Zrotation Yrotation Xrotation
									JOINT RightHandIndex1
									{
										OFFSET -0.622530 -0.000000 -0.000000
										CHANNELS 3 Zrotation Yrotation Xrotation
										End Site
										{
											OFFSET 0.000000 0.000000 0.000000
										}
									}
								}
								JOINT RThumb
								{
									OFFSET 0.000000 0.000000 0.000000
									CHANNELS 3 Zrotation Yrotation Xrotation
									End Site
									{
										OFFSET 0.000000 0.000000 0.000000
									}
								}
							}
						}
					}
				}
			}
		}
	}
}
}
MOTION
Frames: 9
Frame Time: 0.008333
9.425531 17.282712 -0.066744 35.792179 81.707096 57.772959 -1.022477 -1.871959 -5.877319 -1.148720 -2.017378 -4.098246 -7.422820 -2.085188 -0.491875 4.554377 -5.917921 -9.017546 -4.472183 -0.313125 -0.566539 0.000000 0.000000 0.000000 -1.505108 9.206524 2.819599 -46.955394 -7.414359 2.426299 -0.615176 -79.511484 -0.046946 9.035974 2.678053 0.199322 -0.255111 0.257583 0.000000 0.000000 0.000000 0.000000 0.000000 0.000000 0.000000 12.972038 -0.451278 0.545356 71.310979 11.784338 -7.204490 0.675395 59.247834 -0.045231 -9.491425 8.930741 -0.780750 0.089009 -0.376510 0.000000 0.000000 0.000000 0.000000 0.000000 0.000000 0.000000 
9.674180 17.355033 -0.033781 35.321752 81.544447 57.486971 -1.530756 -1.627191 -5.743879 -1.263225 -1.724420 -4.097865 -7.351721 -1.792598 -0.569903 4.614462 -5.828570 -8.983888 -4.404482 -0.308040 -0.560547 0.000000 0.000000 0.000000 -1.651204 9.280799 2.904238 -46.817423 -6.920698 2.762799 -0.664677 -78.933096 -0.043420 8.848795 2.249750 0.161680 -0.253859 0.252150 0.000000 0.000000 0.000000 0.000000 0.000000 0.000000 0.000000 12.812278 -0.107425 0.562927 71.223362 12.148685 -3.360974 0.811160 59.658183 -0.031040 -6.837969 9.522992 -0.597870 0.067290 -0.379934 0.000000 0.000000 0.000000 0.000000 0.000000 0.000000 0.000000 
9.925439 17.422136 -0.000777 34.918177 81.396150 57.286713 -2.047406 -1.397072 -5.658508 -1.375490 -1.446289 -4.104189 -7.271393 -1.515129 -0.632628 4.695536 -5.745110 -8.953320 -4.326920 -0.302278 -0.553776 0.000000 0.000000 0.000000 -1.751692 9.391714 2.973936 -46.717138 -6.439836 3.128102 -0.703889 -78.512647 -0.039962 8.616665 1.846560 0.126643 -0.252393 0.247518 0.000000 0.000000 0.000000 0.000000 0.000000 0.000000 0.000000 12.618533 0.216497 0.585459 71.099808 12.555414 0.512559 0.929054 60.341574 -0.018200 -4.369604 10.060708 -0.402606 0.045901 -0.383627 0.000000 0.000000 0.000000 0.000000 0.000000 0.000000 0.000000 
10.179494 17.482835 0.032622 34.675817 81.271701 57.267009 -2.575498 -1.187645 -5.626425 -1.486111 -1.188705 -4.117482 -7.183181 -1.258458 -0.678097 4.798429 -5.663778 -8.925482 -4.239804 -0.295858 -0.546121 0.000000 0.000000 0.000000 -1.813378 9.545076 3.031719 -46.636952 -5.979772 3.525597 -0.733259 -78.238700 -0.036655 8.334182 1.502048 0.097011 -0.250724 0.243338 0.000000 0.000000 0.000000 0.000000 0.000000 0.000000 0.000000 12.394299 0.521184 0.610943 70.943420 13.004745 4.373926 1.022993 61.284934 -0.006939 -2.135481 10.519917 -0.205060 0.025340 -0.387780 -0.000000 0.000000 0.000000 0.000000 0.000000 0.000000 0.000000 
10.436594 17.536066 0.066598 34.650106 81.181928 57.483502 -3.112952 -1.003314 -5.648855 -1.594763 -0.956043 -4.135561 -7.088596 -1.026564 -0.698248 4.926023 -5.596037 -8.907325 -4.143219 -0.288686 -0.539657 0.000000 0.000000 0.000000 -1.846463 9.768236 3.078818 -46.560142 -5.584808 3.968840 -0.754862 -78.081730 -0.033576 8.000735 1.240494 0.074783 -0.248963 0.239384 0.000000 0.000000 0.000000 0.000000 0.000000 0.000000 0.000000 12.148738 0.791660 0.635775 70.748695 13.517333 8.203520 1.089149 62.462281 0.002608 -0.188049 10.884649 -0.017833 0.006302 -0.392556 -0.000000 0.000000 0.000000 0.000000 0.000000 0.000000 0.000000 
10.696817 17.580974 0.101059 34.868957 81.135579 57.955795 -3.652222 -0.845743 -5.719593 -1.700343 -0.750240 -4.158839 -6.989224 -0.821500 -0.700116 5.073431 -5.536738 -8.890599 -4.038466 -0.280944 -0.532114 0.000000 0.000000 0.000000 -1.861479 10.025540 3.118178 -46.470878 -5.207732 4.439739 -0.767303 -78.053534 -0.030751 7.616036 1.078930 0.060557 -0.246898 0.235283 0.000000 0.000000 0.000000 0.000000 0.000000 0.000000 0.000000 11.880160 1.031439 0.661516 70.529428 14.088158 11.937022 1.125977 63.842570 0.010556 1.469028 11.144697 0.151076 -0.011102 -0.398137 0.000000 0.000000 0.000000 0.000000 0.000000 0.000000 0.000000 
10.960353 17.616786 0.135677 35.314859 81.141572 58.661362 -4.181323 -0.714396 -5.831429 -1.800812 -0.571487 -4.183243 -6.886595 -0.642907 -0.674533 5.242829 -5.509848 -8.885343 -3.925535 -0.272487 -0.526507 0.000000 0.000000 0.000000 -1.870462 10.344629 3.148565 -46.359110 -4.896405 4.948619 -0.772644 -78.123702 -0.028225 7.186679 1.022650 0.053929 -0.244622 0.230935 0.000000 0.000000 0.000000 0.000000 0.000000 0.000000 0.000000 11.598215 1.214402 0.685655 70.279708 14.749016 15.567898 1.134502 65.386741 0.016940 2.799714 11.296978 0.291170 -0.026040 -0.404563 -0.000000 0.000000 0.000000 0.000000 0.000000 0.000000 0.000000 
11.227139 17.642724 0.169886 35.943250 81.204444 59.540639 -4.684901 -0.605237 -5.971063 -1.893703 -0.416791 -4.209939 -6.781712 -0.488089 -0.636057 5.425326 -5.497668 -8.876226 -3.806308 -0.263632 -0.518593 0.000000 0.000000 0.000000 -1.876698 10.669778 3.172284 -46.227237 -4.571981 5.464639 -0.768277 -78.315589 -0.025982 6.717172 1.069907 0.053802 -0.241825 0.226095 0.000000 0.000000 0.000000 0.000000 0.000000 0.000000 0.000000 11.293820 1.360750 0.710968 70.015994 15.467176 19.023090 1.116142 67.071761 0.021993 3.827367 11.336734 0.399453 -0.038556 -0.411847 -0.000000 0.000000 0.000000 0.000000 0.000000 0.000000 0.000000 
11.497230 17.658030 0.202903 36.671108 81.327103 60.497119 -5.144786 -0.512458 -6.124411 -1.975688 -0.281830 -4.235745 -6.674681 -0.352454 -0.583304 5.618247 -5.515505 -8.866460 -3.680625 -0.254317 -0.509383 0.000000 0.000000 0.000000 -1.884984 11.002067 3.187147 -46.082789 -4.237591 5.980430 -0.754267 -78.619838 -0.024033 6.218842 1.211583 0.058371 -0.238470 0.220754 0.000000 0.000000 0.000000 0.000000 0.000000 0.000000 0.000000 10.965617 1.456943 0.737306 69.738747 16.254230 22.291060 1.074601 68.864841 0.025852 4.551574 11.268059 0.472631 -0.048064 -0.419852 -0.000000 0.000000 0.000000 0.000000 0.000000 0.000000 0.000000 
